<svg xmlns="http://www.w3.org/2000/svg" width="36" height="36" viewBox="0 0 36 36"><defs><style>.a{fill:#fff;}.b{fill:#7c8d9d;stroke:#7c8d9d;stroke-width:0.3px;}.c,.d{stroke:none;}.d{fill:#f79256;}</style></defs><g class="a"><path class="c" d="M 18 35.5 C 13.32557964324951 35.5 8.930950164794922 33.67967987060547 5.625629901885986 30.37437057495117 C 2.320319890975952 27.06904983520508 0.5 22.67441940307617 0.5 18 C 0.5 13.32557964324951 2.320319890975952 8.930950164794922 5.625629901885986 5.625629901885986 C 8.930950164794922 2.320319890975952 13.32557964324951 0.5 18 0.5 C 22.67441940307617 0.5 27.06904983520508 2.320319890975952 30.37437057495117 5.625629901885986 C 33.67967987060547 8.930950164794922 35.5 13.32557964324951 35.5 18 C 35.5 22.67441940307617 33.67967987060547 27.06904983520508 30.37437057495117 30.37437057495117 C 27.06904983520508 33.67967987060547 22.67441940307617 35.5 18 35.5 Z"/><path class="d" d="M 18 1 C 13.45914077758789 1 9.190059661865234 2.768310546875 5.979190826416016 5.979190826416016 C 2.768310546875 9.190059661865234 1 13.45914077758789 1 18 C 1 22.54085922241211 2.768310546875 26.80994033813477 5.979190826416016 30.02080917358398 C 9.190059661865234 33.231689453125 13.45914077758789 35 18 35 C 22.54085922241211 35 26.80994033813477 33.231689453125 30.02080917358398 30.02080917358398 C 33.231689453125 26.80994033813477 35 22.54085922241211 35 18 C 35 13.45914077758789 33.231689453125 9.190059661865234 30.02080917358398 5.979190826416016 C 26.80994033813477 2.768310546875 22.54085922241211 1 18 1 M 18 0 C 27.94112014770508 0 36 8.058879852294922 36 18 C 36 27.94112014770508 27.94112014770508 36 18 36 C 8.058879852294922 36 0 27.94112014770508 0 18 C 0 8.058879852294922 8.058879852294922 0 18 0 Z"/></g><g transform="translate(12.5 11.1)"><path class="b" d="M222.713,154.7a.315.315,0,0,0-.315.315v5.947a.315.315,0,1,0,.629,0v-5.947A.315.315,0,0,0,222.713,154.7Zm0,0" transform="translate(-215.088 -149.271)"/><path class="b" d="M104.713,154.7a.315.315,0,0,0-.315.315v5.947a.315.315,0,1,0,.629,0v-5.947A.315.315,0,0,0,104.713,154.7Zm0,0" transform="translate(-100.967 -149.271)"/><path class="b" d="M.928,4.166v8.078a1.809,1.809,0,0,0,.481,1.248A1.615,1.615,0,0,0,2.58,14h6.2a1.614,1.614,0,0,0,1.171-.507,1.809,1.809,0,0,0,.481-1.248V4.166A1.252,1.252,0,0,0,10.115,1.7H8.436v-.41A1.288,1.288,0,0,0,7.138,0H4.226a1.288,1.288,0,0,0-1.3,1.3V1.7H1.249A1.252,1.252,0,0,0,.928,4.166Zm7.856,9.176H2.58a1.038,1.038,0,0,1-1-1.1V4.2h8.2v8.049a1.038,1.038,0,0,1-1,1.1ZM3.584,1.294A.632.632,0,0,1,4.226.654H7.138a.632.632,0,0,1,.643.639V1.7h-4.2ZM1.249,2.359h8.865a.59.59,0,0,1,0,1.18H1.249a.59.59,0,1,1,0-1.18Zm0,0" transform="translate(0.003 0.002)"/><path class="b" d="M163.713,154.7a.315.315,0,0,0-.315.315v5.947a.315.315,0,1,0,.629,0v-5.947A.315.315,0,0,0,163.713,154.7Zm0,0" transform="translate(-158.027 -149.271)"/></g></svg>