<svg xmlns="http://www.w3.org/2000/svg" xmlns:xlink="http://www.w3.org/1999/xlink" width="217.109" height="154.679" viewBox="0 0 217.109 154.679"><defs><style>.a{fill:#e9e9f0;}.b{fill:url(#a);}.c,.t{fill:#fff;}.c{stroke:#f5f5f5;}.d,.l{fill:#2bc5b4;}.d{opacity:0.05;}.e{fill:#dbdbdb;}.f{opacity:0.5;}.g{fill:url(#b);}.h{fill:#f5f5f5;}.i{fill:#fda57d;}.j{fill:#333;}.k{opacity:0.1;}.m{fill:#4d8af0;}.n{fill:#fdb797;}.o{fill:url(#d);}.p{fill:#be7c5e;}.q{fill:none;stroke:#2bc5b4;stroke-miterlimit:10;stroke-width:2px;stroke-dasharray:12;}.r{fill:url(#e);}.s{fill:#f79256;}</style><linearGradient id="a" x1="0.489" y1="1.219" x2="0.489" y2="-0.264" gradientUnits="objectBoundingBox"><stop offset="0" stop-opacity="0.09"/><stop offset="0.55" stop-opacity="0.071"/><stop offset="1" stop-opacity="0.02"/></linearGradient><linearGradient id="b" x1="0.5" y1="1" x2="0.5" gradientUnits="objectBoundingBox"><stop offset="0" stop-color="gray" stop-opacity="0.251"/><stop offset="0.54" stop-color="gray" stop-opacity="0.122"/><stop offset="1" stop-color="gray" stop-opacity="0.102"/></linearGradient><linearGradient id="d" x1="-4.806" y1="1" x2="-4.806" y2="0" xlink:href="#b"/><linearGradient id="e" x1="0.5" y1="1" x2="0.5" y2="0" xlink:href="#b"/></defs><g transform="translate(-1088.6 -400.353)"><path class="a" d="M891.954,807.431H676.514a.835.835,0,1,1,0-1.669h215.44a.835.835,0,1,1,0,1.669Z" transform="translate(412.921 -252.399)"/><g transform="translate(1126.721 400.361)"><rect class="b" width="123.574" height="82.081" transform="translate(10.763 26.44) rotate(-0.08)"/><rect class="c" width="140.551" height="89.264" rx="12.68" transform="translate(2.808 22.69) rotate(-0.08)"/><rect class="d" width="77.086" height="117.885" transform="translate(132.543 28.728) rotate(90)"/><ellipse class="e" cx="3.254" cy="3.177" rx="3.254" ry="3.177" transform="translate(5.576 64.553)"/><ellipse class="e" cx="1.085" cy="1.059" rx="1.085" ry="1.059" transform="translate(136.583 53.127)"/><rect class="e" width="13.766" height="1.085" rx="0.543" transform="translate(138.423 59.253) rotate(89.92)"/><g class="f" transform="translate(94.828 -0.008)"><path class="g" d="M767.09,100.821a17.64,17.64,0,1,0-27.481,14.641l.012.078a6.039,6.039,0,0,0,2,1.274l.023-.078c.833.708,4.3,1.842,8.3,1.834h.087a16.217,16.217,0,0,0,7.695-1.754s.022-.047.055-.133a6.285,6.285,0,0,0,1.667-1.139q.015-.1.028-.2A17.62,17.62,0,0,0,767.09,100.821Z" transform="translate(-731.809 -83.182)"/></g><circle class="h" cx="17.11" cy="17.11" r="17.11" transform="translate(95.36 0.525)"/><path class="i" d="M782.525,231.22s-4.077.333-3,7.761a5.855,5.855,0,0,0,1.94,1.235l2.294-7.761Z" transform="translate(-676.592 -206.551)"/><path class="i" d="M871.624,231.22s4.077.333,3,7.761a5.856,5.856,0,0,1-1.94,1.235l-2.294-7.761Z" transform="translate(-752.462 -206.551)"/><path class="j" d="M784.49,158.2s-1.94,5.644-3,5.116c0,0,10.212,8.82,19.227,0a26.868,26.868,0,0,0-3.881-5.116Z" transform="translate(-678.381 -145.703)"/><circle class="j" cx="7.585" cy="7.585" r="7.585" transform="translate(105.07 4.384)"/><path class="k" d="M803.636,231.22H790.414l-1.242,5.3s-.725,2.45.177,3.527,9.335,3.527,15.523.177a6.9,6.9,0,0,0,.177-4.409c-.705-2.469-.177-.177-.177-.177Z" transform="translate(-684.552 -206.551)"/><path class="k" d="M804.7,231.22H791.464l-1.232,5.3s-.725,2.45.177,3.527,9.335,3.527,15.523.177a6.9,6.9,0,0,0,.177-4.409c-.705-2.469-.177-.177-.177-.177Z" transform="translate(-685.436 -206.551)"/><path class="l" d="M804.089,231.22H790.86l-1.239,5.3s-.725,2.45.177,3.527,9.335,3.527,15.523.177a6.9,6.9,0,0,0,.177-4.409c-.705-2.469-.177-.177-.177-.177Z" transform="translate(-684.928 -206.551)"/><path class="k" d="M659.82,121.7h5.293v4.334a2.55,2.55,0,0,1-2.55,2.55h-.192a2.55,2.55,0,0,1-2.55-2.55Z" transform="translate(-549.831 -101.42)"/><path class="i" d="M659.82,120.52h5.293v4.334a2.55,2.55,0,0,1-2.55,2.55h-.192a2.55,2.55,0,0,1-2.55-2.55V120.52Z" transform="translate(-549.831 -100.437)"/><path class="k" d="M822.83,205.105a7.616,7.616,0,0,0,5.292.015v-.65H822.83Z" transform="translate(-712.83 -184.26)"/><circle class="i" cx="7.585" cy="7.585" r="7.585" transform="translate(105.07 6.031)"/><path class="j" d="M795.25,120.2h14.461s-1.235-5.834-6.7-5.468S795.25,120.2,795.25,120.2Z" transform="translate(-689.847 -109.471)"/><ellipse class="i" cx="0.705" cy="1.324" rx="0.705" ry="1.324" transform="translate(104.521 11.969)"/><ellipse class="i" cx="0.705" cy="1.324" rx="0.705" ry="1.324" transform="translate(119.339 11.969)"/><path class="k" d="M795.25,121.385h14.461s-1.235-5.834-6.7-5.468S795.25,121.385,795.25,121.385Z" transform="translate(-689.847 -110.454)"/><g class="f" transform="translate(6.113 24.548)"><path class="g" d="M234.89,248.135a17.64,17.64,0,1,0-27.48,14.641l.012.078a6.037,6.037,0,0,0,2,1.274l.023-.078c.833.708,4.3,1.842,8.3,1.834h.087a16.216,16.216,0,0,0,7.695-1.754s.022-.047.055-.133a6.284,6.284,0,0,0,1.667-1.139q.015-.1.028-.2a17.62,17.62,0,0,0,7.613-14.523Z" transform="translate(-199.609 -230.495)"/></g><circle class="h" cx="17.11" cy="17.11" r="17.11" transform="translate(6.644 25.081)"/><path class="l" d="M245.1,376.46s-4.077.333-3,7.761a5.857,5.857,0,0,0,1.94,1.235l2.294-7.761Z" transform="translate(-228.749 -327.58)"/><path class="l" d="M334.235,376.46s4.077.333,3,7.761a5.857,5.857,0,0,1-1.94,1.235l-2.3-7.763Z" transform="translate(-304.652 -327.58)"/><circle class="j" cx="7.585" cy="7.585" r="7.585" transform="translate(15.491 28.595)"/><path class="m" d="M266.248,376.46H253.017l-1.235,5.293s-.725,2.45.177,3.527,9.335,3.527,15.523.177a6.9,6.9,0,0,0,.177-4.406c-.705-2.469-.177-.177-.177-.177Z" transform="translate(-236.743 -327.58)"/><path class="m" d="M267.308,376.46H254.077l-1.235,5.293s-.725,2.45.177,3.527,9.335,3.527,15.523.177a6.9,6.9,0,0,0,.177-4.406c-.705-2.469-.177-.177-.177-.177Z" transform="translate(-237.626 -327.58)"/><path class="l" d="M266.684,376.46H253.447l-1.235,5.293s-.725,2.45.177,3.527,9.335,3.527,15.523.177a6.9,6.9,0,0,0,.183-4.406c-.705-2.469-.177-.177-.177-.177Z" transform="translate(-237.101 -327.58)"/><path class="k" d="M122.44,266.93h5.293v4.334a2.55,2.55,0,0,1-2.55,2.55h-.192a2.55,2.55,0,0,1-2.55-2.55Z" transform="translate(-102.03 -222.441)"/><path class="n" d="M122.44,265.76h5.293v4.334a2.55,2.55,0,0,1-2.55,2.55h-.192a2.55,2.55,0,0,1-2.55-2.55Z" transform="translate(-102.03 -221.466)"/><path class="k" d="M285.44,350.345a7.616,7.616,0,0,0,5.293.015v-.65H285.44Z" transform="translate(-265.02 -305.289)"/><circle class="n" cx="7.585" cy="7.585" r="7.585" transform="translate(15.491 30.242)"/><path class="k" d="M257.87,266.585h14.464s-1.235-5.834-6.7-5.468S257.87,266.585,257.87,266.585Z" transform="translate(-242.046 -231.45)"/><path class="j" d="M257.87,265.445h14.464s-1.235-5.834-6.7-5.468S257.87,265.445,257.87,265.445Z" transform="translate(-242.046 -230.5)"/><ellipse class="n" cx="0.705" cy="1.324" rx="0.705" ry="1.324" transform="translate(14.943 36.18)"/><ellipse class="n" cx="0.705" cy="1.324" rx="0.705" ry="1.324" transform="translate(29.758 36.18)"/><path class="j" d="M263.494,248.576a2.689,2.689,0,0,1,.975-1.445,5.081,5.081,0,0,1,1.235-.53,9.443,9.443,0,0,0,1.8-.858,11.433,11.433,0,0,1,1.955-1.135,6.5,6.5,0,0,1,3.834.117,3.226,3.226,0,0,1,.9.333,3.4,3.4,0,0,1,.8.77l2,2.409a3.835,3.835,0,0,1,.5.7,2.4,2.4,0,0,1,.227.788,2.064,2.064,0,0,1-.213,1.294,2.035,2.035,0,0,1-1.7.893,6.185,6.185,0,0,1-1.964-.355,38.894,38.894,0,0,0-6.3-1.42,17.782,17.782,0,0,0-3.207-.1c-.333.022-.78.177-.984-.167C263.152,249.567,263.4,248.873,263.494,248.576Z" transform="translate(-246.546 -217.501)"/><g class="f" transform="translate(52.807 77.466)"><path class="o" d="M479.73,565.585a17.64,17.64,0,1,1,27.48,14.641l-.012.078a6.037,6.037,0,0,1-2,1.274l-.023-.078c-.833.708-4.3,1.842-8.3,1.834h-.087a16.216,16.216,0,0,1-7.695-1.754s-.022-.047-.055-.133a6.283,6.283,0,0,1-1.667-1.139q-.015-.1-.028-.2A17.62,17.62,0,0,1,479.73,565.585Z" transform="translate(-479.73 -547.945)"/></g><circle class="h" cx="17.11" cy="17.11" r="17.11" transform="translate(53.336 77.998)"/><path class="p" d="M529.4,692.87s-4.077.333-3,7.761a5.855,5.855,0,0,0,1.94,1.235l2.294-7.761Z" transform="translate(-465.658 -591.246)"/><path class="p" d="M618.477,692.87s4.077.333,3,7.761a5.857,5.857,0,0,1-1.944,1.235l-2.294-7.761Z" transform="translate(-541.51 -591.246)"/><path class="j" d="M540.81,619.852s-.313.913-.758,1.97c-.97,2.312.137,11.19,2.459,12.135a13.189,13.189,0,0,0,9.59.443c3.094-1.128,4.047-11.234,1.86-13.7-.257-.288-.525-.575-.805-.855Z" transform="translate(-476.896 -530.398)"/><circle class="j" cx="7.585" cy="7.585" r="7.585" transform="translate(62.874 81.341)"/><path class="k" d="M550.506,692.87H537.277l-1.235,5.293s-.725,2.45.177,3.527,9.335,3.527,15.523.177a6.9,6.9,0,0,0,.177-4.409c-.705-2.469-.177-.177-.177-.177Z" transform="translate(-473.618 -591.246)"/><path class="k" d="M551.566,692.87H538.337l-1.235,5.293s-.725,2.45.177,3.527,9.335,3.527,15.523.177a6.9,6.9,0,0,0,.177-4.409c-.705-2.469-.177-.177-.177-.177Z" transform="translate(-474.501 -591.246)"/><path class="l" d="M550.976,692.87H537.747l-1.235,5.293s-.725,2.45.177,3.527,9.335,3.527,15.523.177a6.9,6.9,0,0,0,.177-4.409c-.705-2.469-.177-.177-.177-.177Z" transform="translate(-474.01 -591.246)"/><path class="k" d="M406.69,583.35h5.293v4.334a2.55,2.55,0,0,1-2.55,2.55h-.19a2.55,2.55,0,0,1-2.55-2.55V583.35Z" transform="translate(-338.897 -486.115)"/><path class="p" d="M406.69,582.17h5.293V586.5a2.55,2.55,0,0,1-2.55,2.55h-.19a2.55,2.55,0,0,1-2.55-2.55V582.17Z" transform="translate(-338.897 -485.132)"/><path class="k" d="M569.7,666.755a7.616,7.616,0,0,0,5.293.015v-.65H569.7Z" transform="translate(-501.895 -568.955)"/><circle class="p" cx="7.585" cy="7.585" r="7.585" transform="translate(62.874 82.986)"/><path class="j" d="M542.12,581.865h14.464s-1.235-5.834-6.7-5.468S542.12,581.865,542.12,581.865Z" transform="translate(-478.913 -494.175)"/><ellipse class="p" cx="0.705" cy="1.324" rx="0.705" ry="1.324" transform="translate(62.326 88.924)"/><ellipse class="p" cx="0.705" cy="1.324" rx="0.705" ry="1.324" transform="translate(77.143 88.924)"/><path class="k" d="M542.12,583.035h14.464s-1.235-5.834-6.7-5.468S542.12,583.035,542.12,583.035Z" transform="translate(-478.913 -495.15)"/><path class="q" d="M586.52,240.44v63.813H569.4" transform="translate(-474.484 -200.366)"/><path class="q" d="M139.91,380.49v40.467h24.9" transform="translate(-116.588 -317.071)"/><g class="f" transform="translate(16.806 57.193)"><circle class="r" cx="6.088" cy="6.088" r="6.088"/></g><circle class="s" cx="5.729" cy="5.729" r="5.729" transform="translate(17.165 57.552)"/><path class="t" d="M117.945,362.547l2.149,1.969,3.042-4.476,1.075.9-4.117,5.371-3.044-3.4Z" transform="translate(-97.538 -300.03)"/><g class="f" transform="translate(106.903 31.08)"><circle class="r" cx="6.088" cy="6.088" r="6.088"/></g><circle class="s" cx="5.729" cy="5.729" r="5.729" transform="translate(107.262 31.439)"/><path class="t" d="M658.435,205.9l2.149,1.969,3.044-4.476,1.073.9-4.117,5.371-3.044-3.4Z" transform="translate(-547.931 -169.493)"/><g class="f" transform="translate(64.881 110.11)"><circle class="r" cx="6.088" cy="6.088" r="6.088"/></g><circle class="s" cx="5.729" cy="5.729" r="5.729" transform="translate(65.239 110.469)"/><path class="t" d="M406.345,680l2.149,1.969,3.044-4.476,1.074.9-4.117,5.371-3.044-3.4Z" transform="translate(-337.864 -564.562)"/></g></g></svg>