<svg xmlns="http://www.w3.org/2000/svg" width="15.192" height="15.5" viewBox="0 0 15.192 15.5"><defs><style>.a{fill:none;stroke:#7c8d9d;stroke-width:1.5px;}</style></defs><path class="a" d="M15.418,10.686a4.827,4.827,0,0,0,0-1.372l1.477-1.155a.353.353,0,0,0,.084-.448l-1.4-2.422a.352.352,0,0,0-.427-.154l-1.743.7a5.114,5.114,0,0,0-1.183-.686L11.96,3.294A.341.341,0,0,0,11.617,3h-2.8a.341.341,0,0,0-.343.294L8.208,5.149a5.378,5.378,0,0,0-1.183.686l-1.743-.7a.341.341,0,0,0-.427.154l-1.4,2.422a.345.345,0,0,0,.084.448L5.016,9.314A5.551,5.551,0,0,0,4.967,10a5.551,5.551,0,0,0,.049.686L3.539,11.841a.353.353,0,0,0-.084.448l1.4,2.422a.352.352,0,0,0,.427.154l1.743-.7a5.114,5.114,0,0,0,1.183.686l.266,1.855A.341.341,0,0,0,8.817,17h2.8a.341.341,0,0,0,.343-.294l.266-1.855a5.378,5.378,0,0,0,1.183-.686l1.743.7a.341.341,0,0,0,.427-.154l1.4-2.422a.353.353,0,0,0-.084-.448l-1.477-1.155Zm-5.2,1.764A2.45,2.45,0,1,1,12.667,10,2.453,2.453,0,0,1,10.217,12.45Z" transform="translate(-2.616 -2.25)"/></svg>